<?xml version="1.0" ?><!DOCTYPE svg  PUBLIC '-//W3C//DTD SVG 1.1//EN'  'http://www.w3.org/Graphics/SVG/1.1/DTD/svg11.dtd'><svg height="100%" style="fill-rule:evenodd;clip-rule:evenodd;stroke-linejoin:round;stroke-miterlimit:1.41421;" version="1.1" viewBox="0 0 100 100" width="100%" xml:space="preserve" xmlns="http://www.w3.org/2000/svg" xmlns:xlink="http://www.w3.org/1999/xlink"><path d="M75.033,79.319c0.334,-0.004 0.48,-0.238 0.63,-0.457c1.551,-2.265 2.777,-4.697 3.735,-7.267c1.775,-4.762 2.599,-9.711 2.856,-14.763c0.191,-3.757 -0.042,-7.494 -0.658,-11.207c-0.456,-2.744 -1.503,-5.24 -3.168,-7.466c-1.491,-1.992 -3.434,-3.36 -5.825,-4.066c-1.244,-0.368 -2.501,-0.509 -3.807,-0.304c-1.56,0.245 -3,0.779 -4.361,1.551c-1.453,0.824 -2.752,1.854 -3.955,3.008c-1.474,1.415 -2.764,2.984 -3.932,4.661c-1.831,2.629 -3.052,5.525 -3.723,8.645c-0.43,2 -0.581,4.018 -0.16,6.059c0.487,2.355 1.631,4.281 3.527,5.758c0.979,0.764 2.061,1.354 3.218,1.79c3.149,1.185 6.403,1.702 9.77,1.472c0.755,-0.052 1.488,-0.206 2.201,-0.435c2.102,-0.673 3.63,-2.009 4.536,-4.034c0.529,-1.184 0.832,-2.425 0.918,-3.722c0.279,-4.236 -0.698,-8.182 -2.735,-11.884c-0.44,-0.799 -0.95,-1.556 -1.56,-2.235c-0.357,-0.397 -0.737,-0.781 -1.15,-1.118c-1.156,-0.946 -2.464,-1.214 -3.92,-0.846c-1.33,0.335 -2.481,0.993 -3.512,1.871c-1.831,1.562 -3.153,3.479 -3.979,5.744c-0.467,1.281 -0.639,2.592 -0.548,3.946c0.062,0.929 0.36,1.778 0.82,2.578c1.214,2.115 4.339,3.54 6.377,3.459c1.283,-0.05 2.263,-0.611 2.913,-1.705c0.725,-1.218 0.837,-2.534 0.436,-3.875c-0.364,-1.22 -1.356,-1.782 -2.618,-1.549c-0.21,0.039 -0.409,0.128 -0.616,0.179c-0.155,0.038 -0.315,0.058 -0.473,0.078c-0.306,0.039 -0.674,-0.197 -0.757,-0.48c-0.085,-0.287 0.055,-0.699 0.293,-0.859c0.089,-0.059 0.17,-0.135 0.266,-0.177c0.543,-0.236 1.102,-0.397 1.703,-0.423c1.688,-0.072 2.869,0.684 3.62,2.164c0.097,0.19 0.186,0.388 0.251,0.59c0.627,1.954 0.389,3.81 -0.677,5.552c-0.67,1.094 -1.644,1.827 -2.864,2.209c-0.721,0.225 -1.472,0.284 -2.226,0.22c-2.439,-0.206 -4.544,-1.172 -6.311,-2.853c-0.991,-0.942 -1.642,-2.103 -2.035,-3.411c-0.441,-1.468 -0.488,-2.971 -0.206,-4.455c0.73,-3.838 2.68,-6.957 5.74,-9.379c0.93,-0.737 1.958,-1.309 3.084,-1.693c1.504,-0.513 3.023,-0.659 4.576,-0.199c1.104,0.327 2.042,0.926 2.891,1.68c0.969,0.86 1.785,1.855 2.459,2.955c2.802,4.565 4.105,9.504 3.618,14.869c-0.141,1.559 -0.568,3.05 -1.266,4.456c-1.199,2.411 -3.05,4.105 -5.58,5.038c-2.097,0.774 -4.265,0.994 -6.483,0.774c-0.533,-0.053 -1.066,-0.109 -1.596,-0.182c-2.183,-0.3 -4.314,-0.808 -6.355,-1.649c-1.343,-0.553 -2.6,-1.261 -3.747,-2.158c-1.726,-1.35 -3.023,-3.029 -3.82,-5.071c-0.751,-1.925 -1.022,-3.935 -0.891,-5.991c0.158,-2.478 0.757,-4.855 1.661,-7.167c1.407,-3.601 3.593,-6.681 6.248,-9.453c1.338,-1.397 2.801,-2.649 4.433,-3.695c1.268,-0.812 2.605,-1.485 4.046,-1.932c2.71,-0.84 5.38,-0.757 8.006,0.359c1.191,0.506 2.292,1.158 3.279,1.997c0.285,0.243 0.56,0.499 0.854,0.731c0.051,0.041 0.178,0.001 0.263,-0.024c0.026,-0.008 0.051,-0.096 0.042,-0.141c-0.185,-0.898 -0.596,-1.715 -0.948,-2.551c-2.472,-5.874 -5.782,-11.223 -10.062,-15.957c-2.018,-2.233 -4.233,-4.249 -6.708,-5.969c-1.677,-1.165 -3.448,-2.16 -5.355,-2.9c-1.353,-0.525 -2.748,-0.923 -4.194,-1.046c-2.201,-0.189 -4.383,-0.001 -6.543,0.484c-1.049,0.236 -1.849,0.814 -2.501,1.628c-0.52,0.649 -0.774,1.397 -0.782,2.231c-0.008,0.825 0.206,1.586 0.606,2.302c0.529,0.95 1.239,1.743 2.07,2.433c0.994,0.826 2.091,1.493 3.233,2.089c2.577,1.348 5.321,2.238 8.131,2.95c0.939,0.238 1.895,0.351 2.849,0.484c0.802,0.112 1.601,0.087 2.382,-0.176c0.338,-0.115 0.493,-0.425 0.332,-0.762c-0.186,-0.385 -0.368,-0.776 -0.592,-1.138c-1.542,-2.488 -3.477,-4.615 -5.862,-6.318c-0.434,-0.31 -0.902,-0.58 -1.378,-0.82c-0.38,-0.191 -0.794,-0.316 -1.199,-0.453c-0.149,-0.051 -0.314,-0.075 -0.472,-0.074c-0.455,0.004 -0.828,0.173 -1.076,0.577c-0.234,0.38 -0.1,0.731 0.1,1.054c0.314,0.509 0.751,0.913 1.24,1.245c0.62,0.42 1.267,0.797 1.899,1.2c0.224,0.143 0.443,0.296 0.649,0.463c0.16,0.13 0.2,0.533 0.099,0.75c-0.112,0.242 -0.398,0.419 -0.641,0.394c-0.106,-0.011 -0.222,-0.004 -0.316,-0.044c-1.441,-0.617 -2.76,-1.42 -3.848,-2.564c-0.334,-0.351 -0.585,-0.758 -0.776,-1.21c-0.317,-0.754 -0.237,-1.471 0.167,-2.155c0.498,-0.842 1.253,-1.296 2.226,-1.383c0.825,-0.073 1.591,0.163 2.339,0.47c0.998,0.41 1.902,0.984 2.759,1.632c2.194,1.658 4.105,3.599 5.718,5.827c0.314,0.433 0.591,0.893 0.867,1.351c0.137,0.229 0.269,0.471 0.345,0.724c0.416,1.38 0.119,2.527 -1.225,3.293c-0.367,0.209 -0.78,0.37 -1.192,0.461c-0.995,0.22 -2.007,0.358 -3.03,0.262c-1.547,-0.147 -3.083,-0.34 -4.586,-0.772c-3.714,-1.067 -7.013,-2.891 -9.952,-5.383c-0.696,-0.591 -1.32,-1.254 -1.884,-1.973c-0.464,-0.593 -0.874,-1.22 -1.17,-1.913c-0.56,-1.311 -0.831,-2.651 -0.403,-4.067c0.073,-0.242 0.261,-0.563 0.033,-0.756c-0.301,-0.254 -0.592,0.063 -0.858,0.194c-1.105,0.546 -2.156,1.186 -3.171,1.888c-2.576,1.781 -4.798,3.939 -6.77,6.359c-2.039,2.502 -3.713,5.237 -5.192,8.101c-0.577,1.116 -0.868,2.289 -1.013,3.523c-0.249,2.138 -0.277,4.271 -0.008,6.411c0.221,1.763 0.626,3.474 1.311,5.116c0.435,1.043 0.991,2.018 1.702,2.899c1.107,1.373 2.489,2.352 4.189,2.839c1.191,0.343 2.415,0.509 3.655,0.366c0.849,-0.098 1.703,-0.214 2.532,-0.419c4.063,-1.007 7.723,-2.836 10.974,-5.477c0.958,-0.779 1.837,-1.641 2.638,-2.582c0.801,-0.94 1.5,-1.951 2.077,-3.046c0.504,-0.957 0.835,-1.97 1.022,-3.031c0.103,-0.588 0.073,-1.167 -0.095,-1.748c-0.241,-0.84 -0.762,-1.38 -1.587,-1.665c-0.941,-0.326 -1.903,-0.301 -2.86,-0.169c-1.06,0.146 -2.106,0.379 -3.126,0.718c-1.527,0.507 -3.011,1.119 -4.441,1.855c-1.194,0.615 -2.311,1.351 -3.332,2.226c-0.572,0.49 -1.089,1.029 -1.479,1.682c-0.674,1.128 -0.369,2.068 0.869,2.578c0.698,0.287 1.432,0.425 2.191,0.447c0.758,0.022 1.494,-0.114 2.227,-0.268c1.434,-0.301 2.742,-0.898 3.958,-1.706c0.36,-0.239 0.675,-0.523 0.882,-0.915c0.146,-0.276 0.098,-0.651 -0.121,-0.893c-0.187,-0.207 -0.414,-0.337 -0.682,-0.395c-0.653,-0.143 -1.293,-0.077 -1.87,0.248c-0.462,0.261 -0.881,0.599 -1.314,0.912c-0.258,0.186 -0.497,0.4 -0.76,0.579c-0.218,0.149 -0.539,0.108 -0.749,-0.06c-0.254,-0.203 -0.341,-0.568 -0.208,-0.867c0.044,-0.097 0.063,-0.214 0.128,-0.293c1.06,-1.296 2.384,-2.15 4.079,-2.304c0.764,-0.07 1.493,0.134 2.138,0.561c0.823,0.544 1.231,1.31 1.183,2.312c-0.024,0.498 -0.183,0.944 -0.449,1.355c-0.325,0.502 -0.763,0.893 -1.252,1.23c-0.974,0.673 -2.019,1.204 -3.128,1.623c-1.113,0.42 -2.267,0.651 -3.442,0.745c-1.465,0.118 -2.889,-0.091 -4.197,-0.817c-1.868,-1.036 -2.222,-2.862 -1.526,-4.539c0.162,-0.392 0.374,-0.775 0.626,-1.116c0.349,-0.472 0.727,-0.93 1.148,-1.338c0.497,-0.484 1.027,-0.945 1.589,-1.351c2.174,-1.574 4.473,-2.946 6.928,-4.035c0.877,-0.389 1.794,-0.706 2.719,-0.965c1.509,-0.422 3.037,-0.577 4.602,-0.214c2.337,0.541 4.057,2.303 4.35,4.597c0.143,1.121 0.096,2.238 -0.19,3.347c-0.392,1.523 -1.054,2.916 -1.903,4.228c-1.054,1.63 -2.34,3.062 -3.799,4.337c-3.704,3.236 -7.998,5.332 -12.737,6.549c-1.724,0.442 -3.488,0.571 -5.263,0.44c-3.153,-0.233 -5.753,-1.551 -7.744,-4.027c-0.914,-1.137 -1.593,-2.407 -2.111,-3.768c-0.709,-1.865 -1.115,-3.796 -1.276,-5.782c-0.034,-0.425 -0.071,-0.851 -0.114,-1.277c-0.003,-0.027 -0.064,-0.065 -0.101,-0.069c-0.049,-0.006 -0.117,0.001 -0.147,0.032c-0.072,0.073 -0.158,0.154 -0.186,0.248c-1.107,3.646 -1.875,7.362 -2.352,11.141c-0.201,1.596 -0.294,3.199 -0.427,4.799c-0.298,3.592 -0.153,7.174 0.195,10.75c0.129,1.329 0.279,2.664 0.624,3.962c0.038,0.14 0.138,0.153 0.21,0.051c0.123,-1.043 0.221,-2.107 0.379,-3.163c0.247,-1.653 0.732,-3.232 1.535,-4.708c1.119,-2.06 2.746,-3.524 4.959,-4.343c1.566,-0.58 3.164,-1.026 4.826,-1.159c3.767,-0.304 6.824,0.988 9.01,4.145c0.613,0.886 1.104,1.841 1.458,2.853c1.021,2.92 1.477,5.908 1.084,9.005c-0.282,2.219 -1.032,4.258 -2.249,6.126c-0.827,1.269 -1.853,2.353 -3.105,3.216c-0.984,0.678 -2.054,1.143 -3.238,1.337c-1.878,0.308 -3.502,-0.205 -4.851,-1.536c-0.377,-0.373 -0.707,-0.808 -0.99,-1.258c-2.236,-3.551 -3.284,-7.412 -2.98,-11.618c0.07,-0.971 0.31,-1.901 0.662,-2.802c0.216,-0.551 0.51,-1.064 0.903,-1.509c1.06,-1.199 2.372,-1.61 3.913,-1.181c1.56,0.435 2.79,1.337 3.64,2.727c0.862,1.412 1.25,2.947 1.138,4.602c-0.044,0.65 -0.223,1.264 -0.542,1.832c-0.544,0.971 -1.689,1.541 -2.887,0.998c-0.691,-0.313 -1.324,-0.698 -1.743,-1.359c-0.191,-0.302 -0.11,-0.752 0.183,-1.02c0.224,-0.204 0.664,-0.271 0.9,-0.115c0.312,0.207 0.605,0.442 0.918,0.646c0.131,0.086 0.29,0.13 0.439,0.185c0.17,0.063 0.483,-0.036 0.572,-0.186c0.082,-0.136 0.187,-0.274 0.216,-0.424c0.348,-1.796 -0.068,-3.397 -1.262,-4.786c-0.544,-0.632 -1.251,-0.991 -2.057,-1.175c-0.7,-0.16 -1.266,0.051 -1.711,0.602c-0.345,0.426 -0.565,0.925 -0.653,1.452c-0.123,0.737 -0.249,1.49 -0.221,2.232c0.126,3.292 1.148,6.298 3.035,9.004c0.122,0.175 0.251,0.348 0.387,0.512c0.597,0.723 1.364,0.992 2.288,0.873c0.49,-0.063 0.931,-0.248 1.35,-0.488c0.848,-0.484 1.555,-1.133 2.159,-1.897c1.546,-1.954 2.324,-4.199 2.498,-6.663c0.113,-1.614 -0.046,-3.215 -0.38,-4.792c-0.302,-1.42 -0.78,-2.785 -1.613,-3.997c-1.158,-1.688 -2.737,-2.665 -4.797,-2.852c-1.907,-0.172 -3.73,0.187 -5.528,0.772c-1.599,0.519 -2.81,1.519 -3.677,2.948c-0.445,0.736 -0.78,1.521 -1.045,2.34c-0.634,1.963 -0.805,3.987 -0.764,6.029c0.077,3.844 0.911,7.532 2.374,11.086c0.371,0.899 0.846,1.725 1.426,2.502c3.125,4.182 7.11,7.234 11.976,9.13c2.812,1.095 5.729,1.714 8.733,2.007c4.583,0.446 9.095,0.106 13.536,-1.081c4.903,-1.31 9.237,-3.664 12.886,-7.224c0.269,-0.262 0.532,-0.529 0.788,-0.802c0.26,-0.278 0.415,-0.611 0.539,-0.973c0.382,-1.109 0.145,-2.115 -0.474,-3.056c-0.417,-0.635 -0.986,-1.123 -1.622,-1.536c-0.814,-0.528 -1.692,-0.915 -2.615,-1.209c-1.906,-0.605 -3.867,-0.853 -5.855,-0.891c-3.613,-0.07 -7.152,0.474 -10.638,1.386c-2.753,0.72 -5.411,1.695 -7.935,3.025c-1.092,0.575 -2.138,1.221 -3.125,1.962c-0.687,0.516 -1.325,1.086 -1.873,1.752c-0.344,0.418 -0.62,0.87 -0.778,1.393c-0.12,0.399 -0.022,0.755 0.243,1.043c0.215,0.233 0.462,0.463 0.741,0.601c0.525,0.261 1.069,0.502 1.63,0.665c1.393,0.403 2.824,0.606 4.274,0.675c2.571,0.122 5.142,0.085 7.709,-0.075c1.549,-0.097 3.094,-0.28 4.614,-0.612c1.625,-0.355 3.211,-0.836 4.712,-1.568c0.724,-0.353 1.419,-0.754 2.046,-1.262c0.418,-0.339 0.794,-0.716 1.079,-1.179c0.284,-0.46 0.181,-0.964 -0.256,-1.265c-0.631,-0.433 -1.343,-0.648 -2.079,-0.814c-1.854,-0.419 -3.724,-0.393 -5.594,-0.18c-1.382,0.158 -2.761,0.358 -4.135,0.58c-1.056,0.171 -2.108,0.38 -3.149,0.623c-1.042,0.243 -2.073,0.537 -3.056,0.975c-0.21,0.094 -0.34,0.241 -0.347,0.483c0.528,0.285 1.108,0.372 1.698,0.422c1.337,0.114 2.674,0.119 4.012,0.008c1.023,-0.085 2.008,-0.307 2.935,-0.765c0.188,-0.092 0.394,-0.164 0.599,-0.203c0.225,-0.043 0.419,0.06 0.549,0.249c0.133,0.194 0.132,0.411 0.005,0.6c-0.116,0.173 -0.252,0.349 -0.417,0.472c-0.612,0.452 -1.319,0.71 -2.045,0.904c-2.035,0.542 -4.107,0.752 -6.207,0.599c-0.638,-0.047 -1.276,-0.166 -1.898,-0.318c-0.629,-0.153 -1.208,-0.431 -1.648,-0.942c-0.457,-0.53 -0.557,-1.353 -0.175,-1.943c0.201,-0.31 0.44,-0.617 0.727,-0.843c0.419,-0.328 0.881,-0.61 1.351,-0.86c0.9,-0.479 1.856,-0.831 2.83,-1.129c2.466,-0.754 4.969,-1.279 7.559,-1.397c1.557,-0.071 3.103,-0.075 4.651,0.1c1.284,0.144 2.526,0.459 3.715,0.969c0.644,0.277 1.246,0.623 1.74,1.131c0.828,0.854 1.035,1.851 0.62,2.958c-0.13,0.345 -0.337,0.668 -0.543,0.978c-0.421,0.632 -0.981,1.132 -1.583,1.584c-1.121,0.842 -2.353,1.485 -3.652,2.001c-2.049,0.815 -4.171,1.343 -6.352,1.667c-1.433,0.214 -2.876,0.302 -4.315,0.427c-2.944,0.255 -5.885,0.281 -8.816,-0.148c-1.168,-0.171 -2.312,-0.44 -3.403,-0.908c-0.796,-0.343 -1.521,-0.787 -2.108,-1.435c-0.677,-0.746 -1.023,-1.614 -1.004,-2.631c0.014,-0.772 0.254,-1.471 0.608,-2.142c0.353,-0.668 0.819,-1.253 1.337,-1.799c0.928,-0.977 1.986,-1.794 3.122,-2.513c1.496,-0.947 3.071,-1.747 4.718,-2.398c6.019,-2.379 12.245,-3.432 18.716,-2.892c1.718,0.143 3.388,0.51 5.01,1.082c1.115,0.393 2.172,0.911 3.128,1.617c1.192,0.88 2.12,1.96 2.561,3.405c0.046,0.149 0.115,0.291 0.17,0.427M14.846,55.671c0.13,-2.867 0.225,-5.487 0.511,-8.099c0.444,-4.056 1.209,-8.044 2.34,-11.96c1.372,-4.753 3.259,-9.288 5.803,-13.54c1.683,-2.814 3.625,-5.433 5.903,-7.796c2.092,-2.17 4.408,-4.06 7.011,-5.592c2.703,-1.591 5.587,-2.709 8.673,-3.259c2.596,-0.462 5.208,-0.596 7.831,-0.156c1.434,0.24 2.814,0.645 4.159,1.184c2.25,0.903 4.321,2.123 6.278,3.544c2.874,2.09 5.421,4.533 7.712,7.241c5.8,6.856 9.783,14.663 12.15,23.309c0.707,2.586 1.224,5.214 1.535,7.873c0.424,3.624 0.541,7.256 0.215,10.903c-0.23,2.563 -0.535,5.11 -1.087,7.624c-0.889,4.05 -2.249,7.926 -4.317,11.533c-4.245,7.405 -10.48,12.329 -18.618,14.848c-2.254,0.699 -4.565,1.126 -6.913,1.404c-2.404,0.285 -4.81,0.324 -7.217,0.204c-3.766,-0.188 -7.437,-0.907 -10.958,-2.28c-5.913,-2.306 -10.645,-6.102 -14.197,-11.361c-2.27,-3.361 -3.858,-7.033 -4.924,-10.933c-0.92,-3.366 -1.496,-6.793 -1.675,-10.282c-0.08,-1.551 -0.152,-3.102 -0.215,-4.409" style="fill:#1e1c1a;fill-rule:nonzero;"/></svg>