<?xml version="1.0" ?><!DOCTYPE svg  PUBLIC '-//W3C//DTD SVG 1.1//EN'  'http://www.w3.org/Graphics/SVG/1.1/DTD/svg11.dtd'><svg height="100%" style="fill-rule:evenodd;clip-rule:evenodd;stroke-linejoin:round;stroke-miterlimit:1.41421;" version="1.1" viewBox="0 0 100 100" width="100%" xml:space="preserve" xmlns="http://www.w3.org/2000/svg" xmlns:xlink="http://www.w3.org/1999/xlink"><path d="M82.591,78.075c0.703,-0.026 1.403,-0.224 1.985,-0.755c0.398,-0.364 0.421,-0.926 0.041,-1.322c-0.568,-0.593 -1.259,-0.964 -2.066,-1.099c-0.239,-0.04 -0.496,-0.025 -0.738,0.01c-0.682,0.1 -1.124,0.669 -1.108,1.368c0.017,0.761 0.592,1.77 1.886,1.798M70.727,69.312c1.515,0.02 2.629,-1.23 2.408,-2.71c-0.064,-0.427 -0.315,-0.75 -0.726,-0.857c-1.211,-0.317 -2.007,-0.121 -2.784,0.823c-0.296,0.359 -0.416,0.778 -0.4,1.241c0.029,0.88 0.639,1.492 1.502,1.503M41.751,72.481c-0.037,-0.019 -0.072,-0.051 -0.109,-0.054c-0.047,-0.004 -0.113,-0.002 -0.141,0.027c-0.813,0.807 -1.63,1.611 -2.431,2.43c-1.89,1.933 -3.504,4.083 -4.979,6.342c-0.08,0.121 -0.125,0.267 -0.173,0.406c-0.009,0.025 0.039,0.079 0.071,0.105c0.035,0.028 0.095,0.067 0.124,0.055c0.407,-0.181 0.829,-0.338 1.213,-0.559c3.379,-1.95 5.418,-4.911 6.462,-8.615c0.011,-0.039 -0.024,-0.091 -0.037,-0.137M86.217,75.188c0.119,-0.069 0.265,-0.121 0.367,-0.218c1.061,-1.004 1.597,-2.269 1.762,-3.695c0.039,-0.333 -0.042,-0.693 -0.128,-1.025c-0.137,-0.534 -0.542,-0.821 -1.053,-0.951c-0.396,-0.1 -0.788,-0.052 -1.168,0.111c-0.56,0.24 -1.031,0.602 -1.44,1.044c-0.722,0.779 -1.265,1.663 -1.539,2.696c-0.046,0.174 -0.209,0.353 -0.035,0.542c2.131,0.718 2.131,0.718 3.234,1.496M44.51,51.927c-0.226,0.297 -0.152,0.597 -0.094,0.887c0.421,2.106 0.747,4.224 0.912,6.367c0.057,0.746 0.143,1.49 0.219,2.234c0.021,0.204 0.255,0.336 0.44,0.257c0.091,-0.039 0.189,-0.065 0.274,-0.114c1.734,-0.996 2.5,-2.566 2.435,-4.491c-0.061,-1.845 -0.924,-3.341 -2.426,-4.441c-0.528,-0.388 -1.103,-0.669 -1.76,-0.699M42.836,66.76c0,-0.202 0.004,-0.302 0,-0.402c-0.012,-0.238 0.108,-0.54 -0.127,-0.687c-0.273,-0.17 -0.459,0.116 -0.625,0.276c-0.648,0.624 -1.298,1.248 -1.912,1.906c-1.708,1.831 -3.281,3.775 -4.768,5.789c-2.14,2.899 -4.085,5.929 -6.023,8.964c-0.053,0.084 -0.095,0.177 -0.129,0.271c-0.015,0.042 -0.014,0.112 0.012,0.141c0.059,0.067 0.142,0.169 0.208,0.164c0.752,-0.053 1.474,-0.261 2.203,-0.436c0.519,-0.124 0.866,-0.403 1.137,-0.881c0.765,-1.347 1.55,-2.685 2.385,-3.99c1.658,-2.59 3.695,-4.85 6.079,-6.793c0.272,-0.222 0.549,-0.436 0.813,-0.666c0.233,-0.203 0.374,-0.462 0.41,-0.776c0.114,-0.993 0.233,-1.986 0.337,-2.88M41.937,53.262c0.068,-1.012 -0.254,-1.962 -0.494,-2.923c-0.033,-0.131 -0.268,-0.221 -0.361,-0.147c-0.272,0.218 -0.555,0.424 -0.808,0.662c-1.207,1.128 -2.309,2.355 -3.362,3.626c-3.545,4.277 -6.77,8.785 -9.724,13.488c-2.579,4.108 -4.958,8.327 -6.967,12.746c-0.228,0.5 -0.447,1.004 -0.661,1.51c-0.146,0.346 -0.042,0.552 0.348,0.664c0.432,0.123 0.868,0.23 1.306,0.33c0.454,0.104 0.67,0.004 0.842,-0.387c0.161,-0.366 0.303,-0.74 0.46,-1.108c1.585,-3.726 3.35,-7.365 5.35,-10.888c1.901,-3.35 3.959,-6.598 6.313,-9.651c2.143,-2.78 4.511,-5.346 7.296,-7.505c0.156,-0.121 0.295,-0.265 0.462,-0.417M8.402,67.923c0.087,-0.006 0.213,0.019 0.247,-0.025c0.118,-0.157 0.219,-0.331 0.299,-0.511c0.607,-1.371 1.194,-2.751 1.813,-4.117c2.231,-4.923 4.679,-9.733 7.493,-14.352c1.719,-2.822 3.554,-5.564 5.626,-8.142c2.422,-3.015 5.101,-5.773 8.239,-8.053c1.213,-0.881 1.136,-0.797 0.096,-1.808c-0.072,-0.07 -0.15,-0.133 -0.225,-0.199c-0.354,-0.307 -0.588,-0.333 -0.935,-0.088c-0.245,0.173 -0.484,0.355 -0.722,0.538c-2.47,1.893 -4.704,4.038 -6.764,6.367c-2.825,3.196 -5.293,6.65 -7.489,10.303c-2.218,3.691 -4.163,7.523 -5.953,11.436c-0.666,1.455 -1.29,2.929 -1.942,4.389c-0.209,0.469 -0.296,0.94 -0.238,1.457c0.105,0.944 0.17,1.892 0.455,2.805M38.611,41.193c-0.013,-0.097 -0.005,-0.204 -0.043,-0.291c-0.299,-0.687 -0.604,-1.372 -0.915,-2.054c-0.039,-0.087 -0.11,-0.174 -0.19,-0.224c-0.071,-0.044 -0.208,-0.081 -0.258,-0.044c-0.277,0.209 -0.55,0.427 -0.8,0.667c-4.08,3.925 -7.842,8.137 -11.372,12.558c-5.482,6.866 -10.104,14.275 -13.964,22.163c-0.471,0.963 -0.473,0.981 0.093,1.926c0.255,0.427 0.549,0.833 0.831,1.244c0.109,0.161 0.391,0.114 0.49,-0.08c0.181,-0.356 0.353,-0.717 0.533,-1.074c1.144,-2.278 2.255,-4.573 3.441,-6.829c2.422,-4.607 5.074,-9.077 8.104,-13.314c1.893,-2.648 3.926,-5.18 6.183,-7.529c2.083,-2.168 4.329,-4.154 6.7,-6.001c0.354,-0.276 0.702,-0.56 1.042,-0.854c0.067,-0.058 0.085,-0.174 0.125,-0.264M42.138,54.359c-0.138,0.037 -0.314,0.032 -0.405,0.118c-0.546,0.514 -1.087,1.034 -1.603,1.578c-1.791,1.89 -3.423,3.915 -5.006,5.981c-4.768,6.218 -8.726,12.922 -12.012,20.028c-0.146,0.315 -0.259,0.647 -0.384,0.972c-0.042,0.111 0.073,0.348 0.177,0.371c0.244,0.051 0.487,0.124 0.734,0.141c1.25,0.088 2.497,0.064 3.745,-0.071c0.493,-0.054 0.833,-0.243 1.077,-0.678c0.563,-1.003 1.152,-1.991 1.728,-2.986c1.354,-2.337 2.758,-4.643 4.289,-6.87c1.02,-1.485 2.089,-2.934 3.28,-4.288c1.328,-1.509 2.785,-2.871 4.476,-3.971c0.205,-0.133 0.398,-0.286 0.559,-0.402c0.281,-2.364 -0.055,-7.396 -0.655,-9.923M7.757,59.774c0,0.698 0,1.397 0,2.095c0.001,0.125 0.07,0.181 0.199,0.156c0.042,-0.009 0.098,-0.035 0.115,-0.069c0.192,-0.403 0.394,-0.803 0.565,-1.215c1.798,-4.341 3.745,-8.611 6.041,-12.715c1.538,-2.751 3.215,-5.412 5.127,-7.921c2.903,-3.809 6.29,-7.1 10.361,-9.658c0.167,-0.106 0.32,-0.235 0.479,-0.355c0.102,-0.079 0.094,-0.311 -0.007,-0.393c-0.548,-0.448 -1.176,-0.75 -1.825,-1.015c-1.431,-0.583 -2.885,-0.708 -4.402,-0.34c-1.382,0.335 -2.635,0.925 -3.802,1.713c-1.208,0.814 -2.278,1.789 -3.257,2.865c-1.112,1.224 -2.094,2.546 -2.973,3.946c-1.708,2.721 -3.027,5.624 -4.065,8.661c-1.578,4.62 -2.441,9.366 -2.556,14.245M10.331,73.81c0.364,-0.37 0.496,-0.865 0.706,-1.311c3.522,-7.492 7.736,-14.564 12.771,-21.141c3.662,-4.786 7.765,-9.145 12.456,-12.939c0.156,-0.126 0.31,-0.252 0.461,-0.384c0.266,-0.232 0.301,-0.446 0.118,-0.794c-0.769,-1.464 -1.644,-2.861 -2.67,-4.159c-0.122,-0.155 -0.267,-0.297 -0.422,-0.418c-0.066,-0.051 -0.207,-0.076 -0.275,-0.039c-0.217,0.116 -0.43,0.25 -0.619,0.408c-1.961,1.642 -3.739,3.468 -5.411,5.398c-3.447,3.978 -6.481,8.258 -9.227,12.744c-3.476,5.68 -6.465,11.614 -9.2,17.679c-0.122,0.271 -0.2,0.562 -0.287,0.808c0.353,1.406 0.72,2.755 1.365,4.007c0.033,0.065 0.144,0.089 0.234,0.141M18.543,82.374c0.085,-0.042 0.206,-0.061 0.247,-0.129c0.129,-0.212 0.236,-0.438 0.334,-0.666c0.454,-1.055 0.88,-2.122 1.355,-3.168c2.671,-5.882 5.865,-11.47 9.474,-16.824c1.174,-1.741 2.398,-3.445 3.72,-5.077c2.113,-2.607 4.349,-5.093 7.098,-7.062c0.041,-0.029 0.084,-0.056 0.12,-0.091c0.152,-0.146 0.23,-0.329 0.205,-0.535c-0.029,-0.248 -0.069,-0.496 -0.133,-0.737c-0.45,-1.689 -0.951,-3.363 -1.545,-5.008c-0.084,-0.233 -0.196,-0.457 -0.298,-0.684c-0.054,-0.12 -0.289,-0.193 -0.386,-0.115c-0.385,0.315 -0.78,0.62 -1.147,0.954c-5.644,5.139 -10.579,10.888 -14.816,17.236c-3.611,5.41 -6.774,11.078 -9.705,16.878c-0.068,0.134 -0.132,0.269 -0.191,0.407c-0.11,0.254 -0.06,0.494 0.111,0.697c1.481,1.749 3.278,3.061 5.409,3.91c0.045,0.018 0.099,0.01 0.148,0.014M45.633,63.404c-0.021,0.43 -0.052,0.825 -0.056,1.222c-0.018,1.65 -0.066,3.294 -0.271,4.937c-0.287,2.296 -0.819,4.519 -1.739,6.645c-0.417,0.964 -0.48,0.927 0.432,1.56c0.369,0.257 0.748,0.5 1.136,0.727c2.861,1.675 5.987,2.493 9.263,2.733c2.347,0.172 4.697,0.101 7.027,-0.288c2.333,-0.39 4.573,-1.065 6.659,-2.196c2.276,-1.233 4.183,-2.896 5.726,-4.978c0.222,-0.301 0.352,-0.617 0.193,-0.974c-0.273,-0.615 -0.262,-1.265 -0.29,-1.914c-0.003,-0.073 -0.094,-0.143 -0.156,-0.232c-0.141,0.04 -0.286,0.072 -0.422,0.124c-0.14,0.054 -0.267,0.14 -0.407,0.191c-0.615,0.222 -1.242,0.393 -1.904,0.338c-1.342,-0.11 -2.404,-0.676 -2.974,-1.946c-0.589,-1.312 -0.379,-2.537 0.516,-3.649c0.383,-0.475 0.857,-0.842 1.42,-1.076c0.74,-0.307 1.501,-0.56 2.294,-0.68c1.317,-0.199 2.502,0.483 3.032,1.701c0.185,0.423 0.237,0.868 0.243,1.317c0.005,0.348 -0.041,0.697 -0.061,1.046c-0.008,0.143 0.162,0.291 0.285,0.247c0.422,-0.152 0.844,-0.307 1.265,-0.462c0.255,-0.094 0.406,-0.28 0.465,-0.54c0.332,-1.464 0.598,-2.937 0.666,-4.441c0.19,-4.205 0.023,-8.392 -0.537,-12.567c-0.452,-3.372 -1.045,-6.713 -1.885,-10.009c-1.087,-4.272 -2.533,-8.417 -4.497,-12.372c-1.114,-2.243 -2.39,-4.388 -3.93,-6.369c-0.954,-1.227 -2,-2.367 -3.188,-3.373c-0.843,-0.713 -1.748,-1.332 -2.731,-1.838c-1.788,-0.919 -3.681,-1.249 -5.67,-0.986c-1.751,0.232 -3.406,0.766 -4.955,1.626c-1.365,0.757 -2.594,1.691 -3.724,2.762c-1.457,1.382 -2.72,2.928 -3.84,4.593c-2.019,3.002 -3.6,6.223 -4.786,9.639c-0.099,0.282 -0.201,0.569 -0.249,0.862c-0.031,0.186 0.007,0.397 0.067,0.58c0.061,0.186 0.185,0.352 0.285,0.524c1.516,2.599 2.724,5.337 3.717,8.174c0.561,1.605 1.054,3.228 1.491,4.871c0.098,0.367 0.096,0.802 0.51,1.118c0.19,0 0.437,0.006 0.683,-0.001c1.431,-0.038 2.667,0.472 3.648,1.476c2.095,2.143 2.812,4.695 1.894,7.578c-0.606,1.906 -1.875,3.274 -3.796,3.973c-0.276,0.1 -0.547,0.21 -0.849,0.327M87.274,75.838c1.614,-0.436 3.175,-0.146 4.705,0.384c0.761,0.264 1.439,0.693 2.004,1.282c0.423,0.44 0.733,0.939 0.902,1.533c0.375,1.327 -0.185,2.69 -1.406,3.298c-0.354,0.177 -0.74,0.326 -1.128,0.388c-0.689,0.111 -1.391,0.213 -2.086,0.199c-1.806,-0.037 -3.582,-0.32 -5.295,-0.915c-0.517,-0.18 -1.016,-0.417 -1.507,-0.659c-0.52,-0.256 -0.878,-0.651 -0.912,-1.269c-0.002,-0.042 -0.051,-0.083 -0.078,-0.124c-0.473,-0.155 -0.944,-0.313 -1.417,-0.466c-0.184,-0.059 -0.407,0.017 -0.528,0.185c-0.147,0.202 -0.304,0.399 -0.423,0.616c-0.561,1.031 -0.801,2.152 -0.843,3.311c-0.014,0.39 0.09,0.791 0.182,1.177c0.155,0.653 0.615,0.815 1.102,0.831c0.608,0.019 1.185,-0.15 1.719,-0.452c0.617,-0.347 1.147,-0.799 1.606,-1.335c0.259,-0.304 0.503,-0.621 0.758,-0.928c0.107,-0.128 0.406,-0.175 0.553,-0.099c0.17,0.087 0.284,0.34 0.217,0.504c-0.643,1.588 -1.689,2.819 -3.232,3.592c-0.636,0.319 -1.324,0.432 -2.037,0.409c-1.182,-0.039 -1.968,-0.649 -2.417,-1.705c-0.154,-0.363 -0.206,-0.77 -0.313,-1.154c-0.038,-0.136 -0.1,-0.265 -0.172,-0.451c-0.42,0.226 -0.807,0.445 -1.203,0.647c-0.773,0.393 -1.592,0.568 -2.462,0.524c-0.512,-0.026 -0.985,-0.166 -1.429,-0.408c-0.995,-0.542 -1.516,-1.697 -1.269,-2.803c0.165,-0.743 0.52,-1.401 0.942,-2.026c0.119,-0.177 0.17,-0.354 0.048,-0.545c0.304,-0.024 0.304,-0.024 0.318,-0.369c0.13,-0.152 0.299,-0.161 0.479,-0.132c0.015,-0.075 0.067,-0.168 0.04,-0.223c-0.07,-0.142 0.01,-0.214 0.092,-0.295c0.26,0.081 0.493,-0.007 0.716,-0.124c0.397,-0.21 0.784,-0.442 1.185,-0.643c1.205,-0.602 2.477,-0.743 3.796,-0.515c0.205,0.035 0.357,0.158 0.472,0.334c0.086,0.131 -0.01,0.476 -0.157,0.505c-0.194,0.038 -0.391,0.086 -0.587,0.092c-2.257,0.069 -3.846,1.226 -5.011,3.072c-0.215,0.341 -0.352,0.714 -0.426,1.114c-0.099,0.542 0.169,0.99 0.683,1.174c0.905,0.323 1.78,0.16 2.634,-0.165c0.508,-0.194 0.987,-0.466 1.443,-0.686c0.739,-1.961 0.827,-2.102 2.36,-3.823c0.045,-0.268 -0.12,-0.472 -0.227,-0.69c-0.344,-0.705 -0.387,-1.439 -0.233,-2.193c0.185,-0.905 0.692,-1.525 1.589,-1.82c0.32,-0.106 0.708,-0.067 0.949,-0.412c0,-0.28 0.015,-0.577 -0.005,-0.872c-0.014,-0.196 -0.04,-0.407 -0.126,-0.578c-0.457,-0.905 -1.064,-1.691 -1.911,-2.268c-0.509,-0.346 -1.076,-0.557 -1.692,-0.515c-0.603,0.042 -1.173,0.239 -1.69,0.565c-0.857,0.539 -1.174,1.339 -0.912,2.323c0.051,0.192 0.13,0.378 0.207,0.562c0.274,0.653 0.666,1.228 1.158,1.735c0.278,0.287 0.565,0.565 0.827,0.866c0.096,0.109 0.124,0.269 0.034,0.418c-0.106,0.177 -0.346,0.295 -0.504,0.227c-0.274,-0.118 -0.544,-0.245 -0.812,-0.374c-0.265,-0.128 -0.475,-0.374 -0.869,-0.363c-0.161,0.193 -0.347,0.425 -0.54,0.65c-0.652,0.757 -1.3,1.517 -1.967,2.262c-0.084,0.094 -0.266,0.1 -0.402,0.147c-0.026,0.175 -0.053,0.349 -0.085,0.522c-0.163,0.054 -0.323,0.109 -0.478,0.17c-0.103,0.118 -0.21,0.232 -0.317,0.345c-0.246,0.17 -0.498,0.333 -0.739,0.511c-2.535,1.873 -5.375,3.057 -8.436,3.743c-3.25,0.728 -6.54,0.901 -9.843,0.567c-3.613,-0.365 -6.876,-1.674 -9.759,-3.901c-0.355,-0.274 -0.706,-0.555 -1.073,-0.814c-0.058,-0.042 -0.211,-0.022 -0.274,0.028c-0.155,0.123 -0.295,0.269 -0.417,0.424c-2.6,3.283 -6.063,5.141 -10.075,6.074c-2.799,0.651 -5.648,0.832 -8.499,0.575c-5.602,-0.504 -10.08,-3.023 -13.287,-7.696c-1.486,-2.166 -2.497,-4.554 -3.203,-7.072c-0.745,-2.659 -1.133,-5.379 -1.24,-8.136c-0.101,-2.603 -0.024,-5.202 0.329,-7.786c0.848,-6.202 2.67,-12.09 5.733,-17.571c0.953,-1.705 2.033,-3.328 3.26,-4.85c0.976,-1.21 2.04,-2.335 3.223,-3.345c1.185,-1.012 2.466,-1.88 3.893,-2.514c1.43,-0.635 2.92,-1.008 4.499,-1.026c1.64,-0.019 3.168,0.366 4.617,1.11c1.165,0.598 2.203,1.376 3.16,2.265c0.771,0.716 1.476,1.494 2.133,2.315c0.152,0.19 0.285,0.406 0.559,0.447c0.239,-0.207 0.314,-0.499 0.416,-0.782c0.822,-2.258 1.799,-4.446 2.96,-6.552c1.066,-1.932 2.273,-3.768 3.683,-5.466c1.25,-1.507 2.639,-2.872 4.226,-4.025c1.967,-1.429 4.117,-2.45 6.512,-2.933c3.161,-0.638 6.164,-0.265 8.983,1.358c1.22,0.702 2.34,1.536 3.374,2.487c1.48,1.36 2.771,2.883 3.933,4.519c1.919,2.701 3.472,5.606 4.782,8.645c2.108,4.888 3.572,9.963 4.51,15.201c0.833,4.653 1.059,9.338 0.796,14.045c-0.151,2.697 -0.474,5.379 -1.263,7.982c-0.124,0.408 -0.068,0.593 0.261,0.742c0.99,0.447 1.74,1.156 2.336,2.049c0.109,0.163 0.245,0.308 0.387,0.482c0.141,-0.096 0.291,-0.152 0.37,-0.261c0.234,-0.324 0.422,-0.68 0.659,-1.001c0.513,-0.696 1.148,-1.257 1.958,-1.584c1.084,-0.439 2.151,-0.405 3.162,0.215c0.869,0.533 1.327,1.34 1.442,2.339c0.058,0.499 0.022,0.997 -0.101,1.489c-0.297,1.187 -0.843,2.24 -1.646,3.162c-0.293,0.337 -0.575,0.683 -0.862,1.024c-0.1,0.003 -0.2,0.002 -0.299,0.008c-0.172,0.01 -0.285,0.132 -0.305,0.273c-0.035,0.245 -0.019,0.498 -0.023,0.747c-0.011,0.689 -0.31,1.252 -0.773,1.737c-0.349,0.365 -0.753,0.656 -1.228,0.839c-0.37,0.142 -0.745,0.272 -1.157,0.421c0.073,0.144 0.103,0.311 0.201,0.376c0.205,0.136 0.438,0.246 0.673,0.32c2.131,0.668 4.315,0.805 6.523,0.587c0.489,-0.049 0.975,-0.216 1.442,-0.385c0.545,-0.196 0.786,-0.767 0.648,-1.354c-0.071,-0.302 -0.224,-0.555 -0.421,-0.783c-0.399,-0.461 -0.895,-0.793 -1.433,-1.067c-0.9,-0.459 -1.855,-0.731 -2.855,-0.86c-0.245,-0.032 -0.495,-0.069 -0.727,-0.149c-0.194,-0.067 -0.318,-0.232 -0.318,-0.458c-0.001,-0.099 0,-0.199 0.001,-0.299" style="fill:#1e1c1a;fill-rule:nonzero;"/><path d="M60.946,28.495c-0.012,-1.494 -0.505,-3.095 -1.489,-4.538c-0.543,-0.795 -1.216,-1.455 -2.091,-1.885c-0.975,-0.479 -1.959,-0.607 -3.046,-0.334c-2.272,0.573 -4.943,2.881 -5.762,5.646c-0.245,0.826 -0.311,1.651 -0.122,2.512c0.339,1.549 1.162,2.769 2.468,3.617c2.352,1.525 4.811,1.597 7.223,0.188c1.854,-1.082 2.856,-2.747 2.819,-5.206M55.815,20.257c1.852,-0.081 3.423,0.701 4.731,2.053c1.286,1.329 2.052,2.94 2.414,4.744c0.207,1.033 0.297,2.066 0.102,3.125c-0.281,1.525 -0.948,2.839 -2.019,3.941c-1.331,1.371 -2.954,2.187 -4.852,2.463c-1.945,0.282 -3.784,-0.019 -5.511,-0.953c-1.446,-0.783 -2.569,-1.897 -3.302,-3.376c-0.887,-1.789 -1.044,-3.651 -0.344,-5.523c1.093,-2.926 3.154,-4.925 6.052,-6.067c0.851,-0.335 1.746,-0.411 2.729,-0.407" style="fill:#1e1c1a;fill-rule:nonzero;"/><path d="M66.775,59.615c1.721,0.037 2.966,-0.582 3.912,-1.821c0.397,-0.521 0.683,-1.102 0.928,-1.706c0.284,-0.703 0.385,-1.446 0.486,-2.189c0.248,-1.809 -0.309,-3.357 -1.536,-4.674c-0.904,-0.97 -2.006,-1.633 -3.281,-2.016c-1.943,-0.583 -3.335,-0.133 -4.599,1.542c-0.09,0.12 -0.175,0.244 -0.252,0.373c-1.084,1.81 -1.543,3.794 -1.492,5.878c0.04,1.619 0.84,2.849 2.254,3.655c0.302,0.172 0.626,0.312 0.953,0.434c0.896,0.335 1.828,0.502 2.627,0.524M59.27,54.357c0.044,-1.58 0.468,-3.315 1.273,-4.954c0.399,-0.813 0.896,-1.559 1.538,-2.203c1.037,-1.04 2.282,-1.585 3.754,-1.623c2.076,-0.054 3.951,0.525 5.596,1.792c1.436,1.105 2.379,2.54 2.783,4.322c0.134,0.594 0.157,1.191 0.13,1.789c-0.081,1.779 -0.528,3.458 -1.505,4.96c-0.325,0.499 -0.714,0.967 -1.133,1.391c-1.183,1.198 -2.652,1.777 -4.32,1.78c-1.408,0.002 -2.788,-0.228 -4.095,-0.791c-0.646,-0.278 -1.255,-0.621 -1.801,-1.066c-1.349,-1.098 -2.119,-2.503 -2.218,-4.253c-0.017,-0.298 -0.002,-0.599 -0.002,-1.144" style="fill:#1e1c1a;fill-rule:nonzero;"/><path d="M62.08,70.915c0.011,-1.167 -0.216,-2.285 -0.754,-3.322c-0.844,-1.629 -2.195,-2.431 -4.029,-2.258c-1.964,0.185 -3.636,1.008 -4.904,2.554c-0.785,0.955 -1.214,2.056 -1.202,3.303c0.004,0.497 0.02,0.999 0.089,1.491c0.118,0.845 0.378,1.649 0.824,2.386c0.755,1.245 1.863,1.916 3.312,1.992c2.08,0.11 3.797,-0.678 5.186,-2.196c1.016,-1.112 1.558,-2.42 1.478,-3.95M49.452,71.594c0.004,-2.113 0.797,-3.885 2.33,-5.328c1.118,-1.053 2.452,-1.724 3.938,-2.058c0.776,-0.174 1.58,-0.277 2.374,-0.303c1.872,-0.063 3.401,0.667 4.554,2.152c0.85,1.093 1.293,2.354 1.505,3.706c0.047,0.295 0.061,0.596 0.086,0.895c0.179,2.112 -0.495,3.942 -1.882,5.511c-1.523,1.722 -3.458,2.673 -5.738,2.916c-1.011,0.108 -1.999,-0.042 -2.951,-0.376c-1.484,-0.521 -2.564,-1.522 -3.276,-2.914c-0.673,-1.316 -0.955,-2.726 -0.94,-4.201" style="fill:#1e1c1a;fill-rule:nonzero;"/><path d="M50.924,45.817c-0.024,-0.147 -0.037,-0.399 -0.112,-0.632c-0.154,-0.483 -0.433,-0.893 -0.838,-1.209c-0.689,-0.538 -1.193,-0.46 -1.795,-0.11c-0.945,0.551 -1.096,1.777 -0.348,2.563c0.316,0.331 0.702,0.545 1.119,0.725c1.125,0.485 1.719,-0.043 1.943,-1.088c0.01,-0.049 0.013,-0.099 0.031,-0.249M49.619,42.203c1.311,-0.09 2.729,1.011 3.256,2.354c0.63,1.607 -0.1,3.946 -1.896,4.64c-0.529,0.204 -1.064,0.276 -1.61,0.153c-0.989,-0.223 -1.875,-0.655 -2.602,-1.38c-0.429,-0.427 -0.747,-0.919 -0.942,-1.501c-0.59,-1.757 0.553,-3.996 2.82,-4.22c0.248,-0.025 0.497,-0.024 0.974,-0.046" style="fill:#1e1c1a;fill-rule:nonzero;"/><path d="M69.508,38.949c0,-0.089 0.01,-0.141 -0.002,-0.188c-0.2,-0.853 -0.631,-1.566 -1.306,-2.128c-0.257,-0.214 -0.715,-0.199 -0.973,0.026c-0.433,0.375 -0.672,0.853 -0.787,1.41c-0.076,0.364 -0.009,0.699 0.143,1.018c0.175,0.367 0.453,0.651 0.795,0.876c0.803,0.528 1.875,0.044 2.119,-0.905c0.012,-0.047 0.01,-0.099 0.011,-0.109M71.698,38.719c0.015,0.765 -0.126,1.239 -0.376,1.678c-0.55,0.967 -1.395,1.542 -2.466,1.773c-0.815,0.176 -1.582,-0.001 -2.285,-0.445c-0.602,-0.38 -1.077,-0.882 -1.418,-1.505c-0.509,-0.927 -0.564,-1.886 -0.187,-2.875c0.216,-0.568 0.52,-1.079 0.967,-1.488c0.934,-0.856 2.005,-1.063 3.176,-0.57c1.214,0.51 2.014,1.433 2.456,2.658c0.115,0.32 0.118,0.681 0.133,0.774" style="fill:#1e1c1a;fill-rule:nonzero;"/><path d="M42.669,34.506c-0.083,0.048 -0.194,0.074 -0.244,0.145c-0.445,0.625 -0.433,1.161 0.034,1.737c0.13,0.162 0.314,0.23 0.522,0.195c0.219,-0.036 0.478,-0.299 0.488,-0.489c0.005,-0.097 0.009,-0.197 -0.004,-0.292c-0.061,-0.45 -0.267,-0.837 -0.549,-1.183c-0.05,-0.063 -0.163,-0.076 -0.247,-0.113M43.006,32.942c0.111,0.025 0.367,0.043 0.588,0.138c1.011,0.437 1.7,1.177 2.021,2.242c0.285,0.946 0.039,1.759 -0.619,2.467c-0.274,0.295 -0.605,0.518 -0.975,0.669c-1.135,0.464 -2.077,0.261 -2.818,-0.62c-1.144,-1.363 -1.048,-3.232 0.308,-4.386c0.41,-0.348 0.858,-0.515 1.495,-0.51" style="fill:#1e1c1a;fill-rule:nonzero;"/></svg>