<?xml version="1.0" ?><!DOCTYPE svg  PUBLIC '-//W3C//DTD SVG 1.1//EN'  'http://www.w3.org/Graphics/SVG/1.1/DTD/svg11.dtd'><svg height="100%" style="fill-rule:evenodd;clip-rule:evenodd;stroke-linejoin:round;stroke-miterlimit:1.41421;" version="1.1" viewBox="0 0 100 100" width="100%" xml:space="preserve" xmlns="http://www.w3.org/2000/svg" xmlns:xlink="http://www.w3.org/1999/xlink"><path d="M72.763,56.294c0.471,-0.046 0.908,-0.063 1.336,-0.135c3.963,-0.674 7.615,-2.146 10.972,-4.345c0.685,-0.449 1.324,-0.975 1.944,-1.512c0.361,-0.312 0.659,-0.703 0.952,-1.084c0.27,-0.35 0.126,-0.748 -0.301,-0.932c-0.132,-0.057 -0.264,-0.122 -0.403,-0.155c-0.71,-0.167 -1.423,-0.236 -2.158,-0.164c-2.04,0.199 -3.978,0.769 -5.864,1.55c-0.32,0.132 -0.6,0.306 -0.833,0.56c-0.131,0.142 -0.263,0.284 -0.395,0.424c-1.796,1.9 -3.659,3.727 -5.784,5.265c-0.077,0.056 -0.14,0.133 -0.197,0.21c-0.022,0.03 -0.018,0.088 -0.009,0.129c0.009,0.041 0.036,0.107 0.062,0.111c0.236,0.033 0.474,0.056 0.678,0.078M69.151,51.535c-0.04,-0.675 -0.046,-1.354 -0.123,-2.025c-0.378,-3.277 -1.153,-6.462 -2.28,-9.561c-0.463,-1.271 -0.995,-2.514 -1.634,-3.71c-0.456,-0.854 -0.957,-1.679 -1.562,-2.437c-0.392,-0.494 -0.826,-0.945 -1.356,-1.298c-0.52,-0.346 -0.885,-0.218 -1.079,0.41c-0.085,0.275 -0.135,0.562 -0.188,0.846c-0.278,1.5 -0.097,2.998 0.144,4.472c0.724,4.418 2.13,8.618 4.227,12.58c0.679,1.284 1.457,2.506 2.389,3.624c0.153,0.185 0.331,0.349 0.501,0.519c0.092,0.092 0.323,0.07 0.379,-0.039c0.087,-0.169 0.193,-0.332 0.254,-0.511c0.318,-0.932 0.309,-1.901 0.328,-2.87M85.114,33.578c0,-0.387 0.004,-0.484 0,-0.58c-0.026,-0.555 -0.373,-0.854 -0.948,-0.861c-0.598,-0.008 -1.142,0.187 -1.67,0.425c-0.842,0.379 -1.6,0.897 -2.32,1.47c-0.984,0.784 -1.907,1.634 -2.786,2.533c-2.199,2.249 -4.23,4.641 -6.112,7.16c-0.144,0.194 -0.28,0.394 -0.427,0.585c-0.218,0.286 -0.281,0.598 -0.221,0.954c0.121,0.714 0.234,1.429 0.329,2.147c0.301,2.26 0.384,4.522 0.002,6.783c-0.007,0.045 0.007,0.099 0.028,0.141c0.016,0.031 0.055,0.059 0.09,0.07c0.044,0.014 0.11,0.032 0.14,0.011c0.196,-0.139 0.407,-0.267 0.571,-0.438c0.87,-0.905 1.763,-1.792 2.584,-2.741c2.944,-3.406 5.554,-7.058 7.91,-10.893c0.683,-1.112 1.312,-2.256 1.82,-3.458c0.319,-0.754 0.582,-1.534 0.825,-2.316c0.128,-0.41 0.16,-0.85 0.185,-0.992M33.174,17.214c-0.025,-0.167 -0.067,-0.551 -0.141,-0.93c-0.056,-0.289 -0.456,-0.587 -0.755,-0.589c-0.144,-0.001 -0.291,0.004 -0.433,0.027c-0.627,0.103 -1.215,0.32 -1.759,0.648c-2.074,1.254 -3.772,2.857 -4.731,5.139c-0.075,0.178 -0.143,0.359 -0.226,0.533c-0.135,0.282 -0.478,0.447 -0.71,0.352c-0.267,-0.108 -0.415,-0.37 -0.368,-0.713c0.046,-0.334 0.104,-0.668 0.189,-0.994c0.098,-0.374 0.256,-0.732 0.34,-1.108c0.062,-0.277 0.109,-0.583 0.057,-0.856c-0.229,-1.208 -0.853,-2.138 -1.996,-2.678c-0.536,-0.253 -1.03,-0.207 -1.493,0.161c-0.663,0.527 -1.114,1.207 -1.382,2.001c-0.218,0.643 -0.365,1.304 -0.351,1.992c0.013,0.628 0.027,1.257 0.019,1.885c-0.012,0.92 -0.034,1.838 0.23,2.735c0.025,0.086 0.021,0.205 -0.02,0.281c-0.064,0.12 -0.155,0.238 -0.262,0.319c-0.135,0.101 -0.466,0.061 -0.542,-0.043c-0.141,-0.193 -0.288,-0.385 -0.396,-0.597c-0.572,-1.119 -1.117,-2.252 -1.702,-3.364c-0.361,-0.685 -0.801,-1.321 -1.338,-1.889c-0.83,-0.876 -1.817,-1.061 -2.915,-0.643c-0.447,0.17 -0.88,0.408 -1.275,0.679c-2.236,1.539 -2.595,4.234 -1.309,6.267c0.307,0.486 0.684,0.94 1.092,1.347c1.073,1.074 2.357,1.84 3.753,2.425c0.198,0.083 0.383,0.053 0.548,-0.054c0.161,-0.105 0.3,-0.243 0.447,-0.369c3.257,-2.817 7.059,-4.113 11.341,-4.042c0.723,0.011 1.448,0.086 2.167,0.173c0.383,0.047 0.655,-0.077 0.891,-0.35c1.286,-1.492 2.146,-3.203 2.678,-5.093c0.224,-0.799 0.341,-1.606 0.352,-2.652M18.683,47.8c0.349,-0.152 0.432,-0.505 0.587,-0.796c2.005,-3.759 4.666,-6.984 7.914,-9.731c2.748,-2.325 5.773,-4.213 9.03,-5.741c0.337,-0.158 0.752,-0.211 0.964,-0.585c-0.104,-0.487 -0.556,-0.627 -0.901,-0.836c-0.784,-0.474 -1.583,-0.936 -2.414,-1.321c-2.507,-1.162 -5.148,-1.616 -7.904,-1.353c-3.232,0.309 -6.071,1.533 -8.474,3.725c-1.522,1.389 -2.694,3.032 -3.415,4.975c-0.459,1.236 -0.717,2.514 -0.635,3.836c0.124,1.993 0.843,3.758 2.133,5.286c0.818,0.967 1.763,1.789 2.842,2.455c0.079,0.048 0.181,0.058 0.273,0.086M85.231,73.483c-0.065,-0.309 -0.308,-0.487 -0.512,-0.687c-1.998,-1.963 -4.328,-3.393 -6.961,-4.34c-2.576,-0.927 -5.246,-1.327 -7.967,-1.393c-3.408,-0.084 -6.754,0.412 -10.046,1.255c-5.901,1.51 -11.418,3.926 -16.586,7.142c-1.85,1.152 -3.62,2.418 -5.259,3.859c-0.399,0.351 -0.782,0.721 -1.151,1.104c-0.083,0.086 -0.076,0.259 -0.122,0.442c0.663,0.222 1.298,0.453 1.944,0.647c4.564,1.363 9.24,2.066 13.986,2.339c1.111,0.064 2.224,0.08 3.337,0.107c3.15,0.073 6.281,-0.095 9.391,-0.649c4.757,-0.849 9.253,-2.411 13.447,-4.82c2.146,-1.234 4.14,-2.681 5.972,-4.347c0.208,-0.189 0.464,-0.349 0.527,-0.659M86.379,38.651c-0.115,0.187 -0.229,0.344 -0.315,0.516c-1.082,2.173 -2.375,4.216 -3.793,6.183c-0.141,0.196 -0.266,0.403 -0.392,0.609c-0.022,0.037 -0.032,0.117 -0.01,0.138c0.058,0.055 0.149,0.138 0.205,0.123c0.703,-0.182 1.396,-0.401 2.101,-0.567c1.142,-0.269 2.3,-0.325 3.463,-0.167c0.99,0.135 1.856,0.532 2.561,1.251c0.493,0.503 0.77,1.107 0.815,1.814c0.049,0.749 -0.149,1.44 -0.525,2.08c-0.471,0.802 -1.097,1.473 -1.804,2.071c-0.928,0.785 -1.94,1.449 -3.01,2.021c-3.498,1.869 -7.202,3.064 -11.169,3.41c-1.858,0.162 -3.673,0.016 -5.448,-0.567c-0.23,-0.075 -0.459,-0.164 -0.696,-0.198c-0.453,-0.066 -0.812,-0.293 -1.149,-0.579c-0.852,-0.724 -1.621,-1.528 -2.314,-2.404c-1.053,-1.333 -1.967,-2.758 -2.764,-4.259c-1.945,-3.663 -3.298,-7.532 -3.947,-11.632c-0.258,-1.63 -0.312,-3.278 -0.122,-4.925c0.101,-0.875 0.351,-1.704 0.794,-2.469c0.348,-0.601 0.815,-1.081 1.434,-1.403c0.531,-0.277 1.08,-0.375 1.683,-0.245c0.88,0.189 1.619,0.625 2.293,1.194c0.745,0.632 1.347,1.39 1.886,2.198c0.7,1.051 1.278,2.168 1.784,3.322c0.7,1.599 1.264,3.247 1.746,4.923c0.093,0.325 0.19,0.65 0.303,0.969c0.022,0.063 0.13,0.142 0.191,0.136c0.083,-0.008 0.19,-0.072 0.234,-0.143c0.279,-0.454 0.539,-0.918 0.813,-1.374c1.648,-2.751 3.485,-5.358 5.829,-7.573c0.176,-0.166 0.346,-0.338 0.515,-0.511c0.159,-0.164 0.133,-0.383 -0.066,-0.461c-0.989,-0.39 -1.968,-0.814 -2.976,-1.149c-4.079,-1.351 -8.287,-1.934 -12.569,-2.024c-3.64,-0.077 -7.254,0.216 -10.848,0.804c-3.935,0.643 -7.749,1.705 -11.414,3.274c-4.036,1.728 -7.744,3.985 -10.997,6.954c-2.966,2.708 -5.377,5.833 -7.08,9.482c-1.618,3.466 -2.544,7.095 -2.531,10.943c0.012,4.005 1.217,7.615 3.551,10.856c1.254,1.742 2.759,3.242 4.451,4.558c2.153,1.676 4.513,2.996 7.019,4.062c0.089,0.038 0.176,0.083 0.268,0.113c0.193,0.062 0.381,0.054 0.541,-0.088c0.108,-0.097 0.213,-0.198 0.311,-0.304c1.748,-1.897 3.735,-3.518 5.839,-4.997c2.979,-2.095 6.141,-3.869 9.47,-5.347c4.673,-2.076 9.518,-3.536 14.617,-4.1c2.612,-0.288 5.214,-0.313 7.821,0.045c5.012,0.69 9.356,2.71 12.879,6.394c0.167,0.174 0.344,0.341 0.534,0.487c0.059,0.045 0.198,0.042 0.267,0.002c0.124,-0.069 0.234,-0.172 0.329,-0.28c1.581,-1.787 2.918,-3.738 3.957,-5.889c1.564,-3.238 2.343,-6.65 2.261,-10.252c-0.036,-1.602 -0.221,-3.186 -0.52,-4.759c-0.781,-4.121 -2.465,-7.829 -5.066,-11.12c-0.27,-0.342 -0.556,-0.672 -0.856,-0.987c-0.085,-0.089 -0.246,-0.105 -0.384,-0.159M25.705,17.185c0.426,-0.209 0.632,-0.613 0.923,-0.929c0.9,-0.98 1.965,-1.716 3.191,-2.222c0.767,-0.317 1.556,-0.524 2.397,-0.502c1.56,0.042 2.652,0.977 2.896,2.525c0.168,1.064 0.101,2.126 -0.134,3.174c-0.428,1.913 -1.221,3.667 -2.335,5.277c-0.22,0.319 -0.47,0.617 -0.678,0.943c-0.068,0.106 -0.048,0.269 -0.071,0.425c0.285,0.124 0.544,0.252 0.814,0.353c2.06,0.772 3.918,1.889 5.611,3.287c0.224,0.185 0.441,0.38 0.682,0.538c0.111,0.073 0.281,0.108 0.413,0.086c0.236,-0.038 0.467,-0.122 0.694,-0.203c2.373,-0.848 4.795,-1.523 7.267,-2.01c1.662,-0.328 3.333,-0.586 5.019,-0.778c3.621,-0.412 7.25,-0.46 10.876,-0.21c5.307,0.367 10.428,1.528 15.239,3.877c0.259,0.127 0.508,0.281 0.884,0.314c0.361,-0.206 0.774,-0.452 1.196,-0.681c0.941,-0.513 1.917,-0.917 3.003,-1.014c0.537,-0.048 1.066,-0.03 1.589,0.078c1.308,0.273 2.137,1.086 2.513,2.346c0.195,0.65 0.255,1.323 0.158,2.012c-0.109,0.77 -0.276,1.522 -0.499,2.265c-0.068,0.227 -0.129,0.457 -0.202,0.715c0.232,0.272 0.442,0.532 0.668,0.78c3.2,3.51 5.316,7.586 6.397,12.208c0.655,2.801 0.925,5.639 0.713,8.505c-0.247,3.323 -1.191,6.459 -2.741,9.412c-1.684,3.211 -3.931,5.977 -6.624,8.389c-3.094,2.77 -6.579,4.924 -10.386,6.569c-3.708,1.603 -7.566,2.658 -11.564,3.237c-4.192,0.608 -8.392,0.622 -12.605,0.345c-1.498,-0.098 -2.993,-0.213 -4.483,-0.399c-5.263,-0.657 -10.376,-1.874 -15.213,-4.105c-2.472,-1.139 -4.788,-2.537 -6.898,-4.265c-2.268,-1.858 -4.191,-4.014 -5.657,-6.564c-1.823,-3.169 -2.769,-6.577 -2.85,-10.236c-0.073,-3.335 0.544,-6.546 1.611,-9.686c0.125,-0.367 0.279,-0.723 0.402,-1.09c0.125,-0.372 0.003,-0.539 -0.299,-0.717c-0.25,-0.148 -0.502,-0.292 -0.751,-0.442c-1.857,-1.119 -3.393,-2.563 -4.492,-4.448c-0.098,-0.167 -0.211,-0.324 -0.314,-0.482c-0.483,-0.207 -0.966,-0.085 -1.44,-0.027c-0.96,0.116 -1.915,0.287 -2.877,0.385c-0.672,0.068 -1.352,0.066 -2.028,0.066c-0.182,0 -0.366,-0.099 -0.545,-0.164c-0.115,-0.042 -0.212,-0.272 -0.161,-0.366c0.091,-0.169 0.159,-0.363 0.289,-0.496c0.404,-0.416 0.809,-0.835 1.255,-1.204c0.972,-0.804 2.028,-1.488 3.14,-2.086c0.383,-0.206 0.763,-0.416 1.087,-0.592c0.215,-0.255 0.201,-0.502 0.211,-0.74c0.094,-2.282 0.83,-4.355 2.024,-6.284c0.253,-0.408 0.605,-0.759 0.747,-1.288c-0.294,-0.149 -0.589,-0.306 -0.891,-0.45c-0.919,-0.439 -1.81,-0.925 -2.624,-1.542c-0.856,-0.648 -1.597,-1.404 -2.189,-2.305c-0.541,-0.824 -0.871,-1.725 -1.04,-2.689c-0.163,-0.928 -0.063,-1.847 0.271,-2.716c0.947,-2.47 2.788,-3.894 5.357,-4.372c1.438,-0.267 2.677,0.184 3.682,1.252c0.198,0.211 0.391,0.427 0.589,0.638c0.091,0.098 0.332,0.066 0.366,-0.046c0.124,-0.416 0.233,-0.838 0.371,-1.249c0.297,-0.883 0.746,-1.682 1.394,-2.356c0.583,-0.607 1.274,-1.031 2.122,-1.172c0.692,-0.114 1.347,-0.009 1.973,0.302c0.85,0.423 1.483,1.07 1.976,1.871c0.194,0.315 0.267,0.707 0.581,0.953" style="fill:#1e1c1a;fill-rule:nonzero;"/><path d="M41.279,53.099c-0.482,0 -0.965,0 -1.446,0c-0.122,0 -0.205,0.055 -0.19,0.157c0.013,0.084 0.07,0.165 0.119,0.239c0.025,0.038 0.07,0.067 0.112,0.09c1.488,0.822 2.799,1.88 4.039,3.033c0.106,0.099 0.209,0.203 0.325,0.287c0.204,0.149 0.442,0.209 0.685,0.143c0.277,-0.076 0.562,-0.154 0.814,-0.288c0.883,-0.473 1.338,-1.528 1.093,-2.448c-0.096,-0.362 -0.302,-0.576 -0.675,-0.664c-1.604,-0.378 -3.232,-0.538 -4.876,-0.549M44.76,60.229c0.006,-0.067 0.025,-0.118 0.014,-0.162c-0.034,-0.139 -0.051,-0.293 -0.125,-0.409c-1.467,-2.285 -3.363,-4.11 -5.819,-5.308c-0.874,-0.426 -1.791,-0.73 -2.781,-0.748c-0.191,-0.004 -0.384,-0.037 -0.574,-0.068c-0.208,-0.034 -0.408,-0.3 -0.407,-0.538c0,-0.205 0.076,-0.4 0.256,-0.484c0.261,-0.121 0.54,-0.221 0.822,-0.274c2.051,-0.385 4.123,-0.548 6.207,-0.474c1.303,0.047 2.61,0.091 3.893,0.386c0.616,0.141 1.247,0.166 1.873,0.035c0.982,-0.207 1.601,-0.972 1.586,-1.966c-0.006,-0.439 -0.089,-0.859 -0.266,-1.267c-0.496,-1.14 -1.36,-1.865 -2.521,-2.239c-0.597,-0.192 -1.215,-0.307 -1.851,-0.328c-1.22,-0.041 -2.412,0.144 -3.588,0.437c-2.364,0.587 -4.57,1.559 -6.666,2.788c-1.129,0.662 -2.195,1.413 -3.183,2.274c-0.586,0.509 -1.122,1.064 -1.606,1.672c-0.724,0.911 -1.032,1.953 -1.019,3.104c0.011,0.931 0.397,1.68 1.098,2.274c0.447,0.378 0.959,0.648 1.497,0.874c0.99,0.415 2.028,0.652 3.084,0.778c1.392,0.166 2.79,0.269 4.197,0.259c1.503,-0.012 2.993,-0.177 4.487,-0.291c0.477,-0.036 0.959,-0.11 1.392,-0.325M45.744,58.361c-0.029,0.352 0.222,0.538 0.345,0.784c0.193,0.388 0.4,0.773 0.55,1.178c0.165,0.447 -0.074,1.033 -0.501,1.248c-0.343,0.172 -0.704,0.326 -1.075,0.422c-0.796,0.204 -1.598,0.392 -2.405,0.54c-2.824,0.521 -5.669,0.662 -8.527,0.381c-1.205,-0.119 -2.385,-0.383 -3.522,-0.82c-0.727,-0.28 -1.414,-0.629 -2.03,-1.107c-1.427,-1.103 -2.199,-2.545 -2.223,-4.361c-0.005,-0.434 0.008,-0.872 0.056,-1.304c0.125,-1.126 0.491,-2.16 1.192,-3.07c0.563,-0.732 1.17,-1.42 1.872,-2.017c3.62,-3.082 7.771,-5.041 12.462,-5.818c1.244,-0.207 2.508,-0.198 3.765,-0.063c0.971,0.105 1.894,0.39 2.751,0.863c1.376,0.757 2.305,1.887 2.775,3.392c0.251,0.804 0.293,1.626 0.114,2.437c-0.221,0.993 -0.808,1.75 -1.704,2.24c-0.294,0.16 -0.623,0.26 -0.94,0.376c-0.531,0.194 -0.581,0.253 -0.423,0.852c0.113,0.428 0.189,0.849 0.109,1.288c-0.178,0.971 -0.716,1.682 -1.587,2.128c-0.341,0.175 -0.711,0.292 -1.054,0.431" style="fill:#1e1c1a;fill-rule:nonzero;"/><path d="M23.718,32.683c0.256,0.085 0.544,0.142 0.792,0.272c0.48,0.254 0.638,0.94 0.331,1.38c-0.136,0.195 -0.297,0.384 -0.482,0.531c-0.338,0.27 -0.69,0.528 -1.058,0.754c-1.026,0.631 -2.062,1.245 -3.098,1.86c-0.122,0.073 -0.258,0.133 -0.396,0.167c-0.19,0.048 -0.382,0.027 -0.541,-0.107c-0.158,-0.133 -0.222,-0.316 -0.203,-0.514c0.013,-0.142 0.044,-0.291 0.108,-0.416c0.638,-1.269 1.515,-2.346 2.661,-3.187c0.307,-0.225 0.662,-0.396 1.016,-0.541c0.262,-0.106 0.557,-0.131 0.87,-0.199" style="fill:#1e1c1a;fill-rule:nonzero;"/></svg>